<?xml version="1.0" encoding="utf-8"?>
<!DOCTYPE svg PUBLIC "-//W3C//DTD SVG 1.1//EN" "http://www.w3.org/Graphics/SVG/1.1/DTD/svg11.dtd">
<svg
  version="1.1"
  xmlns="http://www.w3.org/2000/svg"
  xmlns:xlink="http://www.w3.org/1999/xlink"
  x="0px"
  y="0px"
  viewBox="0 0 1000 1000"
  enable-background="new 0 0 1000 1000"
  xml:space="preserve"
>
  <g>
    <g transform="translate(0.000000,511.000000) scale(0.100000,-0.100000)">
      <path
        d="M4680.7,4976.9c-306.2-81.7-512.9-283.3-599.7-579.3l-30.6-107.2l-193.9-30.6c-699.2-112.3-1378-359.8-1880.8-683.9c-211.8-135.3-543.5-451.7-653.3-620.1l-76.6-119.9l-426.2-7.7c-390.4-10.2-433.8-15.3-520.6-68.9c-265.4-165.9-265.4-663.5,0-826.8c84.2-51,132.7-58.7,456.8-68.9l364.9-7.7l12.8-81.7c7.7-43.4,188.9-1327,405.8-2853l393-2776.5l91.9-193.9c158.2-334.3,505.3-615,857.4-696.7c158.2-35.7,4077.9-35.7,4236.2,0c347.1,79.1,689,354.7,852.4,689c107.2,216.9,63.8-56.1,666,4208.1c119.9,849.8,222,1579.6,229.7,1623l12.8,81.7l364.9,7.7c324.1,10.2,372.6,17.9,456.8,68.9c262.8,163.3,267.9,661,5.1,824.3c-91.9,56.1-127.6,61.2-525.7,71.4l-426.2,7.7l-79.1,122.5c-104.6,163.3-444,484.9-658.4,622.7c-487.4,313.9-1196.9,571.6-1873.1,678.8l-193.9,30.6l-30.6,112.3c-66.3,232.2-245,433.8-484.9,538.5C5331.4,4987.1,4808.3,5010.1,4680.7,4976.9z M2807.6,1215.4c135.2-132.7,288.4-495.1,352.2-834.5c15.3-76.6,132.7-844.7,257.7-1704.7c267.9-1814.4,278.2-2018.6,137.8-2317.1c-76.6-163.3-245-158.2-362.4,7.7c-222,313.9-275.6,551.2-556.3,2406.4C2406.9,294.2,2394.2,414.1,2401.8,712.7c12.8,357.3,58.7,512.9,168.4,571.6C2654.5,1327.7,2713.2,1309.8,2807.6,1215.4z M5216.6,1138.9c35.7-61.3,89.3-201.6,120-313.9c58.7-201.6,58.7-211.8,58.7-2051.7c0-1842.5,0-1850.1-58.7-2054.3c-168.4-602.2-472.1-648.2-643.1-99.5c-97,316.4-104.6,518-97,2294.2c10.2,1674.1,10.2,1714.9,66.3,1911.4C4800.6,1320,5032.8,1450.2,5216.6,1138.9z M7360.2,1294.5c130.1-58.7,216.9-339.4,216.9-686.5c0-229.7-444-3396.6-510.4-3659.4c-99.5-375.1-273.1-666-423.6-712c-91.9-28.1-201.6,86.8-250.1,262.8c-81.6,288.4-58.7,579.3,163.3,2235.5c112.3,842.1,216.9,1594.9,232.2,1671.5c74,387.9,245,755.4,403.2,860C7293.8,1335.4,7278.5,1332.8,7360.2,1294.5z"
      />
    </g>
  </g>
</svg>
