<?xml version="1.0" encoding="utf-8"?>
<!-- Svg Vector Icons : http://www.onlinewebfonts.com/icon -->
<!DOCTYPE svg PUBLIC "-//W3C//DTD SVG 1.1//EN" "http://www.w3.org/Graphics/SVG/1.1/DTD/svg11.dtd">
<svg
  version="1.1"
  xmlns="http://www.w3.org/2000/svg"
  xmlns:xlink="http://www.w3.org/1999/xlink"
  x="0px"
  y="0px"
  viewBox="0 0 1000 1000"
  enable-background="new 0 0 1000 1000"
  xml:space="preserve"
>
  <metadata>Svg Vector Icons : http://www.onlinewebfonts.com/icon</metadata>
  <g>
    <g transform="translate(0.000000,511.000000) scale(0.100000,-0.100000)">
      <path
        d="M8161.9,4968.4c-161.9-55.7-305.2-169.8-671.4-533.4l-416.6-416.6l920.8-920.8c509.5-509.5,936.7-923.5,952.6-923.5c15.9,0,201.7,177.8,414,392.7c485.6,496.2,538.7,583.8,538.7,920.8c0,342.3-39.8,403.4-602.4,958c-384.8,382.1-480.3,461.7-589.1,496.2C8583.8,4984.4,8252.1,5000.3,8161.9,4968.4z"
      />
      <path
        d="M3902.8,844.7C2414.1-646.6,1217.3-1859.4,1243.8-1848.7c26.5,7.9,193.7,23.9,371.5,31.8c347.6,18.6,575.8-10.6,660.8-87.6c61-55.7,61-207,2.6-517.5c-77-398-15.9-459.1,392.7-379.5c512.1,98.2,554.6,71.7,554.6-315.8c-2.7-132.7-13.3-291.9-23.9-353c-13.3-63.7-15.9-114.1-5.3-114.1c26.5,0,5256.9,5238.3,5256.9,5267.5c0,15.9-414,440.5-923.5,950l-920.8,920.8L3902.8,844.7z"
      />
      <path
        d="M1145.6-2313.1c-100.8-10.6-209.6-26.5-241.5-34.5C856.4-2360.9,798-2520.1,469-3560.3C262-4218.4,94.8-4762.5,100.1-4765.1c18.6-13.3,2595.2,745.7,2624.4,774.9c15.9,15.9,34.5,167.2,42.5,360.9c13.3,310.5,13.3,331.7-42.5,387.4c-71.7,71.7-204.3,71.7-546.6,2.6c-573.2-119.4-660.8-50.4-557.3,424.6c53.1,241.5,50.4,406-5.3,456.4C1551.6-2305.2,1371.2-2286.6,1145.6-2313.1z"
      />
    </g>
  </g>
</svg>
