<?xml version="1.0" encoding="utf-8"?>
<!DOCTYPE svg PUBLIC "-//W3C//DTD SVG 1.1//EN" "http://www.w3.org/Graphics/SVG/1.1/DTD/svg11.dtd">
<svg
  version="1.1"
  xmlns="http://www.w3.org/2000/svg"
  xmlns:xlink="http://www.w3.org/1999/xlink"
  x="0px"
  y="0px"
  viewBox="0 0 1000 1000"
  enable-background="new 0 0 1000 1000"
  xml:space="preserve"
  fill="#4b5563"
>
  <g>
    <g>
      <g>
        <path
          d="M330.6,838.2c-0.3,0.4-0.6,0.9-0.7,1.3C330,839.2,330.3,838.6,330.6,838.2z"
        />
        <path
          d="M191.3,713.8c0.3-0.1,0.6-0.1,0.9-0.2C192,713.6,191.6,713.7,191.3,713.8z"
        />
        <path
          d="M326.3,845.6c0.1-0.1,0.1-0.1,0.2-0.1C326.4,845.6,326.4,845.6,326.3,845.6z"
        />
        <g>
          <path
            d="M937.6,27.6c-30.9-27.9-51.2-14.2-51.2-14.2L389,493.9l141.4,127.4L957,77.1C957,77.1,968.5,55.5,937.6,27.6z"
          />
          <path
            d="M221.6,679.6L363,807.1l142.4-158.5L363.1,522L221.6,679.6z M318.2,687.8c-2.9,3.2-7,5.2-11.3,5.5c-4.4,0.3-8.6-1.2-11.9-4l-8.3-7.4c-3.3-2.9-5.3-7-5.5-11.2c-0.3-4.4,1.2-8.6,4.1-11.9l64.9-73.6c6-6.8,16.3-7.4,23.1-1.5l8.3,7.4c3.3,2.9,5.3,7,5.5,11.3c0.3,4.4-1.2,8.6-4.1,11.9L318.2,687.8z"
          />
          <path
            d="M192.2,713.6c-0.3,0.1-0.6,0.1-0.9,0.2C84.2,739.1-21.1,854,84.9,982.8c4.9,5.9,12.8,8.4,20.2,6.6c7.4-1.9,13.1-8,14.5-15.6c3.1-16.9,9.9-35.5,24.2-49c32.5-30.8,122.8,18.9,182.5-79.2c0-0.1,6.7-11.8,7.8-14.1L201.3,711.7C198.3,712.3,195.3,712.9,192.2,713.6z M195.3,878c-26.6,1-54.2,2.1-75.2,21.9c-4.1,3.9-7.7,8-11,12.2c-3.7,4.8-9.8,7.1-15.8,6.1c-6-0.9-10.9-5.3-12.8-11c-5.9-18.6-7.4-38.1-1.7-58.5c3.4-11.9,8.8-22.9,15.8-33.1c27,29.4,50.6,46.2,94.2,42.3c27.3-2.5,52.3-1.3,75.5,4.8C242.9,876.2,219.6,877,195.3,878z"
          />
        </g>
      </g>
    </g>
    <g></g>
    <g></g>
    <g></g>
    <g></g>
    <g></g>
    <g></g>
    <g></g>
    <g></g>
    <g></g>
    <g></g>
    <g></g>
    <g></g>
    <g></g>
    <g></g>
    <g></g>
  </g>
</svg>
