<?xml version="1.0" encoding="utf-8"?>
<!DOCTYPE svg PUBLIC "-//W3C//DTD SVG 1.1//EN" "http://www.w3.org/Graphics/SVG/1.1/DTD/svg11.dtd">
<svg
  version="1.1"
  xmlns="http://www.w3.org/2000/svg"
  xmlns:xlink="http://www.w3.org/1999/xlink"
  x="0px"
  y="0px"
  viewBox="0 0 1000 1000"
  enable-background="new 0 0 1000 1000"
  xml:space="preserve"
  fill="#4b5563"
>
  <g>
    <path
      d="M902.9,97.1H699.7c-47.9,0-114.8,27.7-148.7,61.6L209.6,500.1c-33.9,33.9-33.9,89.3,0,123.2l254.3,254.3c33.9,33.9,89.3,33.9,123.2,0l341.4-341.4c33.9-33.9,61.6-100.8,61.6-148.7V184.2C990,136.3,950.8,97.1,902.9,97.1z M786.8,387.4c-48.1,0-87.1-39-87.1-87.1s39-87.1,87.1-87.1c48.1,0,87.1,39,87.1,87.1S834.9,387.4,786.8,387.4z M81.4,582.2l310.6,310.6c-32.9,17.4-74.8,12.3-102.4-15.3L35.4,623.2c-33.9-33.9-33.9-89.3,0-123.2l341.4-341.4c33.9-33.9,100.8-61.6,148.7-61.6l-444,444C70.2,552.4,70.2,570.9,81.4,582.2z"
    />
  </g>
</svg>
