<?xml version="1.0" encoding="utf-8"?>
<!DOCTYPE svg PUBLIC "-//W3C//DTD SVG 1.1//EN" "http://www.w3.org/Graphics/SVG/1.1/DTD/svg11.dtd">
<svg
  version="1.1"
  xmlns="http://www.w3.org/2000/svg"
  xmlns:xlink="http://www.w3.org/1999/xlink"
  x="0px"
  y="0px"
  viewBox="0 0 1000 1000"
  enable-background="new 0 0 1000 1000"
  xml:space="preserve"
  fill="#4b5563"
>
  <g>
    <g>
      <path
        d="M615,402l-17.2,80.2l-2,9.2l-8.4,4.4c-35.4,18.5-57.2,43-65,72.8L870,493.9c104.1-22.4,120-172.5,120-172.5L615,402z"
      />
      <path
        d="M411.3,475.8c0.8-13.7-0.3-27.3-3.2-40.4C392.5,362.5,332.3,319,247.2,319c-21.2,0-44.3,2.6-68.5,7.8c-67.4,14.5-113.5,38.8-141.2,74.4C12.1,434,4.2,474,14.1,520c16.3,75.6,71.2,117.3,154.6,117.3h0c22.2,0,47-2.9,73.7-8.6c0.4-0.1,0.9-0.2,1.3-0.2L385,598.1L411.3,475.8z M228.5,558.4c-22.2,4.8-42.3,7.2-59.7,7.2c-63,0-78.1-30.6-84.5-60.6c-7.1-32.9,2.3-49.8,10-59.7c16.4-21.1,50.8-37.8,99.6-48.3c19.3-4.1,37.3-6.3,53.4-6.3c35.6,0,80.2,10.4,90.8,59.7C353.1,520.6,275.9,548.2,228.5,558.4z"
      />
      <path
        d="M564.7,591.9c-10.8-2.3-21.6-3.5-32.2-3.5c-4.2,0-9.1,0.2-14.6,0.8c-6.5,0.7-13.7,1.9-21.4,4l5.4-24.9c9.5-44.2,42-72.5,76.3-90.4L678.7,10c0,0-150.1,15.9-172.5,120L371.5,756.3c-0.1,0.4-0.2,0.8-0.2,1.2c-6.4,30-9.2,56.9-8.5,81.1c0.8,29.7,7,55.3,18.6,77.1c19.4,36.7,52.6,60.3,98.6,70.1c12.6,2.7,25,4.1,36.7,4.1c54.8,0,126.5-29.3,156.4-168.7C704.4,676.1,637.6,607.6,564.7,591.9z M519.6,443.4c6.7-6.7,17.6-6.7,24.4,0c6.7,6.7,6.7,17.6,0,24.4c-6.7,6.7-17.6,6.7-24.4,0C512.9,461,512.9,450.1,519.6,443.4z M603,806.2c-24.1,112-70.9,112-86.3,112c-6.7,0-14-0.8-21.7-2.5c-32.9-7.1-44.5-22.6-50.3-33.6c-12.5-23.6-13.6-61.8-3.1-110.6c8.9-41.6,32.6-111.4,90.8-111.4c5.5,0,11.3,0.6,17.1,1.9C619.8,677.1,613.2,758.9,603,806.2z"
      />
    </g>
    <g></g>
    <g></g>
    <g></g>
    <g></g>
    <g></g>
    <g></g>
    <g></g>
    <g></g>
    <g></g>
    <g></g>
    <g></g>
    <g></g>
    <g></g>
    <g></g>
    <g></g>
  </g>
</svg>
